<mxfile host="app.diagrams.net" modified="2023-10-19T12:21:42.195Z" agent="Mozilla/5.0 (Macintosh; Intel Mac OS X 10_15_7) AppleWebKit/537.36 (KHTML, like Gecko) Chrome/118.0.0.0 Safari/537.36" etag="Fpi7-VA1MbygOnTpy4vR" version="22.0.5" type="github">
  <diagram name="Page-1" id="3SnFC3LOCb9zNHQhsVjM">
    <mxGraphModel dx="2705" dy="1185" grid="1" gridSize="10" guides="1" tooltips="1" connect="1" arrows="1" fold="1" page="1" pageScale="1" pageWidth="850" pageHeight="1100" math="0" shadow="0">
      <root>
        <mxCell id="0" />
        <mxCell id="1" parent="0" />
        <mxCell id="J1bqy3TiTtF0nXnbvTN2-1" value="Z" style="group;fillColor=#eff6ef;strokeColor=#82b366;fontSize=25;fontStyle=1" parent="1" vertex="1" connectable="0">
          <mxGeometry x="-500" y="100" width="2850" height="1160" as="geometry" />
        </mxCell>
        <mxCell id="J1bqy3TiTtF0nXnbvTN2-2" value="" style="shape=cylinder3;whiteSpace=wrap;html=1;boundedLbl=1;backgroundOutline=1;size=15;fillColor=#f5f5f5;fontColor=#333333;strokeColor=#666666;" parent="J1bqy3TiTtF0nXnbvTN2-1" vertex="1">
          <mxGeometry x="288.1318681318682" y="197.53818181818184" width="37.58241758241759" height="593.1818181818182" as="geometry" />
        </mxCell>
        <mxCell id="J1bqy3TiTtF0nXnbvTN2-3" value="" style="edgeStyle=orthogonalEdgeStyle;rounded=0;orthogonalLoop=1;jettySize=auto;html=1;" parent="J1bqy3TiTtF0nXnbvTN2-1" source="J1bqy3TiTtF0nXnbvTN2-4" target="J1bqy3TiTtF0nXnbvTN2-15" edge="1">
          <mxGeometry relative="1" as="geometry" />
        </mxCell>
        <mxCell id="J1bqy3TiTtF0nXnbvTN2-4" value="Load Balancer" style="text;html=1;strokeColor=none;fillColor=none;align=center;verticalAlign=middle;whiteSpace=wrap;rounded=0;rotation=-90;" parent="J1bqy3TiTtF0nXnbvTN2-1" vertex="1">
          <mxGeometry x="225.49450549450557" y="461.3636363636364" width="162.8571428571429" height="39.54545454545455" as="geometry" />
        </mxCell>
        <mxCell id="J1bqy3TiTtF0nXnbvTN2-5" value="API Gateway" style="aspect=fixed;perimeter=ellipsePerimeter;html=1;align=center;shadow=0;dashed=0;spacingTop=3;image;image=img/lib/active_directory/cluster_server.svg;" parent="J1bqy3TiTtF0nXnbvTN2-1" vertex="1">
          <mxGeometry x="651.4285714285716" y="430.3863636363637" width="38.410724012551206" height="41.07813540231171" as="geometry" />
        </mxCell>
        <mxCell id="J1bqy3TiTtF0nXnbvTN2-6" value="" style="group" parent="J1bqy3TiTtF0nXnbvTN2-1" vertex="1" connectable="0">
          <mxGeometry x="50.109890109890124" y="259.6818181818182" width="97.71428571428574" height="442.90909090909093" as="geometry" />
        </mxCell>
        <mxCell id="J1bqy3TiTtF0nXnbvTN2-8" value="Web" style="sketch=0;outlineConnect=0;fontColor=#232F3E;gradientColor=none;fillColor=#232F3D;strokeColor=none;dashed=0;verticalLabelPosition=bottom;verticalAlign=top;align=center;html=1;fontSize=12;fontStyle=0;aspect=fixed;pointerEvents=1;shape=mxgraph.aws4.client;" parent="J1bqy3TiTtF0nXnbvTN2-6" vertex="1">
          <mxGeometry y="342.72727272727275" width="41.611617680263805" height="40.544653124359606" as="geometry" />
        </mxCell>
        <mxCell id="J1bqy3TiTtF0nXnbvTN2-9" style="edgeStyle=orthogonalEdgeStyle;rounded=0;orthogonalLoop=1;jettySize=auto;html=1;" parent="J1bqy3TiTtF0nXnbvTN2-1" source="J1bqy3TiTtF0nXnbvTN2-8" target="J1bqy3TiTtF0nXnbvTN2-2" edge="1">
          <mxGeometry relative="1" as="geometry" />
        </mxCell>
        <mxCell id="J1bqy3TiTtF0nXnbvTN2-10" value="JSON API" style="edgeLabel;html=1;align=center;verticalAlign=middle;resizable=0;points=[];" parent="J1bqy3TiTtF0nXnbvTN2-9" vertex="1" connectable="0">
          <mxGeometry x="0.0111" y="1" relative="1" as="geometry">
            <mxPoint y="-1" as="offset" />
          </mxGeometry>
        </mxCell>
        <mxCell id="J1bqy3TiTtF0nXnbvTN2-11" value="" style="group" parent="J1bqy3TiTtF0nXnbvTN2-1" vertex="1" connectable="0">
          <mxGeometry x="408.1723299485326" y="200.3618181818182" width="175.38461538461544" height="602.409090909091" as="geometry" />
        </mxCell>
        <mxCell id="J1bqy3TiTtF0nXnbvTN2-12" value="" style="group" parent="J1bqy3TiTtF0nXnbvTN2-11" vertex="1" connectable="0">
          <mxGeometry width="149.07692307692315" height="602.409090909091" as="geometry" />
        </mxCell>
        <mxCell id="J1bqy3TiTtF0nXnbvTN2-13" value="" style="rounded=0;whiteSpace=wrap;html=1;fillColor=#f5f5f5;fontColor=#333333;strokeColor=#666666;" parent="J1bqy3TiTtF0nXnbvTN2-12" vertex="1">
          <mxGeometry width="149.07692307692315" height="602.409090909091" as="geometry" />
        </mxCell>
        <mxCell id="J1bqy3TiTtF0nXnbvTN2-14" value="" style="group" parent="J1bqy3TiTtF0nXnbvTN2-12" vertex="1" connectable="0">
          <mxGeometry x="24.428571428571434" y="119.29545454545456" width="124.64835164835168" height="483.1136363636364" as="geometry" />
        </mxCell>
        <mxCell id="J1bqy3TiTtF0nXnbvTN2-15" value="Web App Server2&lt;br&gt;" style="whiteSpace=wrap;html=1;aspect=fixed;" parent="J1bqy3TiTtF0nXnbvTN2-14" vertex="1">
          <mxGeometry y="129.1818181818182" width="42.67858223616801" height="42.67858223616801" as="geometry" />
        </mxCell>
        <mxCell id="P7Ty_6j_-upv8-t5iq1F-10" style="edgeStyle=orthogonalEdgeStyle;rounded=0;orthogonalLoop=1;jettySize=auto;html=1;" edge="1" parent="J1bqy3TiTtF0nXnbvTN2-14" source="J1bqy3TiTtF0nXnbvTN2-16" target="J1bqy3TiTtF0nXnbvTN2-15">
          <mxGeometry relative="1" as="geometry" />
        </mxCell>
        <mxCell id="J1bqy3TiTtF0nXnbvTN2-16" value="Web App Server1" style="whiteSpace=wrap;html=1;aspect=fixed;" parent="J1bqy3TiTtF0nXnbvTN2-14" vertex="1">
          <mxGeometry width="42.67858223616801" height="42.67858223616801" as="geometry" />
        </mxCell>
        <mxCell id="J1bqy3TiTtF0nXnbvTN2-17" value="Web App Server N" style="whiteSpace=wrap;html=1;aspect=fixed;" parent="J1bqy3TiTtF0nXnbvTN2-14" vertex="1">
          <mxGeometry y="263.6363636363636" width="42.67858223616801" height="42.67858223616801" as="geometry" />
        </mxCell>
        <mxCell id="J1bqy3TiTtF0nXnbvTN2-18" value="Collection of Frontend Services" style="text;html=1;strokeColor=none;fillColor=none;align=center;verticalAlign=middle;whiteSpace=wrap;rounded=0;" parent="J1bqy3TiTtF0nXnbvTN2-12" vertex="1">
          <mxGeometry x="3.5327472527472543" y="17.795454545454547" width="142.0239560439561" height="61.29545454545455" as="geometry" />
        </mxCell>
        <mxCell id="P7Ty_6j_-upv8-t5iq1F-11" value="" style="endArrow=none;dashed=1;html=1;dashPattern=1 3;strokeWidth=2;rounded=0;entryX=0.321;entryY=0.497;entryDx=0;entryDy=0;entryPerimeter=0;" edge="1" parent="J1bqy3TiTtF0nXnbvTN2-12" target="J1bqy3TiTtF0nXnbvTN2-13">
          <mxGeometry width="50" height="50" relative="1" as="geometry">
            <mxPoint x="47.82767005146741" y="379.6381818181818" as="sourcePoint" />
            <mxPoint x="67.10995576575313" y="369.6381818181818" as="targetPoint" />
          </mxGeometry>
        </mxCell>
        <mxCell id="J1bqy3TiTtF0nXnbvTN2-19" style="edgeStyle=orthogonalEdgeStyle;rounded=0;orthogonalLoop=1;jettySize=auto;html=1;entryX=0;entryY=0.5;entryDx=0;entryDy=0;" parent="J1bqy3TiTtF0nXnbvTN2-1" source="J1bqy3TiTtF0nXnbvTN2-15" target="J1bqy3TiTtF0nXnbvTN2-5" edge="1">
          <mxGeometry relative="1" as="geometry" />
        </mxCell>
        <mxCell id="J1bqy3TiTtF0nXnbvTN2-20" value="JSON API" style="edgeLabel;html=1;align=center;verticalAlign=middle;resizable=0;points=[];" parent="J1bqy3TiTtF0nXnbvTN2-19" vertex="1" connectable="0">
          <mxGeometry x="-0.1" y="-1" relative="1" as="geometry">
            <mxPoint as="offset" />
          </mxGeometry>
        </mxCell>
        <mxCell id="J1bqy3TiTtF0nXnbvTN2-23" value="" style="group;fillColor=#e1d5e7;strokeColor=#9673a6;" parent="J1bqy3TiTtF0nXnbvTN2-1" vertex="1" connectable="0">
          <mxGeometry x="192.75089308431546" y="959.4399675324677" width="551.2087912087914" height="118.63636363636365" as="geometry" />
        </mxCell>
        <mxCell id="J1bqy3TiTtF0nXnbvTN2-24" value="" style="rounded=0;whiteSpace=wrap;html=1;fillColor=#e1d5e7;strokeColor=#9673a6;" parent="J1bqy3TiTtF0nXnbvTN2-23" vertex="1">
          <mxGeometry x="-25.054945054945062" y="-39.54545454545455" width="576.2637362637364" height="158.1818181818182" as="geometry" />
        </mxCell>
        <mxCell id="J1bqy3TiTtF0nXnbvTN2-25" value="Cloud&#xa;CDN" style="sketch=0;html=1;verticalAlign=top;labelPosition=center;verticalLabelPosition=bottom;align=center;spacingTop=-6;fontSize=11;fontStyle=1;fontColor=#999999;shape=image;aspect=fixed;imageAspect=0;image=data:image/svg+xml,PHN2ZyB4bWxucz0iaHR0cDovL3d3dy53My5vcmcvMjAwMC9zdmciIHhtbG5zOnY9Imh0dHBzOi8vdmVjdGEuaW8vbmFubyIgd2lkdGg9IjIwIiBoZWlnaHQ9IjIwIiB2aWV3Qm94PSIwIDAgMjAgMjAiPiYjeGE7CTxzdHlsZSB0eXBlPSJ0ZXh0L2NzcyI+JiN4YTsJLnN0MHtmaWxsOiM0Mjg1ZjQ7fSYjeGE7CS5zdDF7ZmlsbDojNjY5ZGY2O30mI3hhOwkuc3Qye2ZpbGw6I2FlY2JmYTt9JiN4YTsJPC9zdHlsZT4mI3hhOwk8cGF0aCBjbGFzcz0ic3QxIiBkPSJNMTMuMTMgNS42M1YzLjIxTDEwIDB2Mi40MXptMy43NSA3LjVMMjAgMTBoLTIuNWwtMy4xMiAzLjEzem0tMTMuNzUgMEwwIDEwaDIuNWwzLjEzIDMuMTN6bTEwIDEuMjV2Mi40MUwxMCAyMHYtMi40MXoiIGZpbGwtcnVsZT0iZXZlbm9kZCIvPiYjeGE7CTxwYXRoIGNsYXNzPSJzdDIiIGQ9Ik02Ljg4IDUuNjNMMTAgMi40MVYwTDYuODggMy4yMXpNMTcuNSAxMEgyMGwtMy4xMi0zLjEyaC0yLjV6bS0xNSAwSDBsMy4xMy0zLjEyaDIuNXptNC4zOCA0LjM4TDEwIDE3LjU5VjIwbC0zLjEyLTMuMjF6bTAtNy41aDYuMjV2Ni4yNUg2Ljg4eiIgZmlsbC1ydWxlPSJldmVub2RkIi8+JiN4YTsJPHBhdGggY2xhc3M9InN0MSIgZD0iTTYuODggMTMuMTNsNi4yNS02LjI1djYuMjV6IiBmaWxsLXJ1bGU9ImV2ZW5vZGQiLz4mI3hhOwk8cGF0aCBjbGFzcz0ic3QwIiBkPSJNMTAgMTBsMy4xMy0zLjEydjYuMjV6IiBmaWxsLXJ1bGU9ImV2ZW5vZGQiLz4mI3hhOzwvc3ZnPg==;" parent="J1bqy3TiTtF0nXnbvTN2-23" vertex="1">
          <mxGeometry y="5.272727272727273" width="22.406255673988202" height="22.406255673988202" as="geometry" />
        </mxCell>
        <mxCell id="J1bqy3TiTtF0nXnbvTN2-26" style="edgeStyle=orthogonalEdgeStyle;rounded=0;orthogonalLoop=1;jettySize=auto;html=1;exitX=0;exitY=0.5;exitDx=0;exitDy=0;entryX=1;entryY=0.5;entryDx=0;entryDy=0;" parent="J1bqy3TiTtF0nXnbvTN2-23" source="J1bqy3TiTtF0nXnbvTN2-27" target="J1bqy3TiTtF0nXnbvTN2-25" edge="1">
          <mxGeometry relative="1" as="geometry" />
        </mxCell>
        <mxCell id="J1bqy3TiTtF0nXnbvTN2-27" value="Static Content &amp;amp; Images" style="aspect=fixed;perimeter=ellipsePerimeter;html=1;align=center;shadow=0;dashed=0;spacingTop=3;image;image=img/lib/active_directory/web_server.svg;" parent="J1bqy3TiTtF0nXnbvTN2-23" vertex="1">
          <mxGeometry x="187.91208791208797" width="21.339291118084006" height="26.674113897605004" as="geometry" />
        </mxCell>
        <mxCell id="J1bqy3TiTtF0nXnbvTN2-28" value="External Services" style="text;html=1;strokeColor=none;fillColor=none;align=center;verticalAlign=middle;whiteSpace=wrap;rounded=0;" parent="J1bqy3TiTtF0nXnbvTN2-23" vertex="1">
          <mxGeometry x="162.8571428571429" y="-39.54545454545455" width="175.38461538461544" height="39.54545454545455" as="geometry" />
        </mxCell>
        <mxCell id="J1bqy3TiTtF0nXnbvTN2-29" value="Other Third Party Services" style="aspect=fixed;perimeter=ellipsePerimeter;html=1;align=center;shadow=0;dashed=0;spacingTop=3;image;image=img/lib/active_directory/web_server.svg;" parent="J1bqy3TiTtF0nXnbvTN2-23" vertex="1">
          <mxGeometry x="409.5870742284536" y="0.7353571428571806" width="21.339291118084006" height="26.674113897605004" as="geometry" />
        </mxCell>
        <mxCell id="J1bqy3TiTtF0nXnbvTN2-30" style="edgeStyle=orthogonalEdgeStyle;rounded=0;orthogonalLoop=1;jettySize=auto;html=1;exitX=0.5;exitY=0;exitDx=0;exitDy=0;entryX=0.5;entryY=1;entryDx=0;entryDy=0;" parent="J1bqy3TiTtF0nXnbvTN2-1" source="J1bqy3TiTtF0nXnbvTN2-25" target="J1bqy3TiTtF0nXnbvTN2-5" edge="1">
          <mxGeometry relative="1" as="geometry">
            <Array as="points">
              <mxPoint x="601.3186813186815" y="843.6363636363636" />
              <mxPoint x="601.3186813186815" y="751.3636363636365" />
              <mxPoint x="696.5274725274728" y="751.3636363636365" />
            </Array>
          </mxGeometry>
        </mxCell>
        <mxCell id="J1bqy3TiTtF0nXnbvTN2-37" value="Service Discovery" style="rounded=1;whiteSpace=wrap;html=1;fillColor=#f5f5f5;fontColor=#333333;strokeColor=#666666;" parent="J1bqy3TiTtF0nXnbvTN2-1" vertex="1">
          <mxGeometry x="870.8777314639385" y="937.0124350649351" width="150.32967032967036" height="79.0909090909091" as="geometry" />
        </mxCell>
        <mxCell id="J1bqy3TiTtF0nXnbvTN2-38" value="Service Manager" style="rounded=1;whiteSpace=wrap;html=1;fillColor=#f5f5f5;fontColor=#333333;strokeColor=#666666;" parent="J1bqy3TiTtF0nXnbvTN2-1" vertex="1">
          <mxGeometry x="1188.858401771878" y="937.0124350649351" width="150.32967032967036" height="79.0909090909091" as="geometry" />
        </mxCell>
        <mxCell id="J1bqy3TiTtF0nXnbvTN2-39" value="" style="endArrow=classic;startArrow=classic;html=1;rounded=0;exitX=0.416;exitY=0;exitDx=0;exitDy=0;exitPerimeter=0;" parent="J1bqy3TiTtF0nXnbvTN2-1" source="J1bqy3TiTtF0nXnbvTN2-37" edge="1">
          <mxGeometry width="50" height="50" relative="1" as="geometry">
            <mxPoint x="889.4505494505497" y="830.4545454545455" as="sourcePoint" />
            <mxPoint x="933.8543778801844" y="860" as="targetPoint" />
          </mxGeometry>
        </mxCell>
        <mxCell id="J1bqy3TiTtF0nXnbvTN2-40" value="" style="endArrow=classic;startArrow=classic;html=1;rounded=0;exitX=0.425;exitY=-0.012;exitDx=0;exitDy=0;exitPerimeter=0;" parent="J1bqy3TiTtF0nXnbvTN2-1" source="J1bqy3TiTtF0nXnbvTN2-38" edge="1">
          <mxGeometry width="50" height="50" relative="1" as="geometry">
            <mxPoint x="896.8668131868135" y="856.8181818181822" as="sourcePoint" />
            <mxPoint x="1252.3714285714286" y="860" as="targetPoint" />
          </mxGeometry>
        </mxCell>
        <mxCell id="J1bqy3TiTtF0nXnbvTN2-41" value="" style="endArrow=classic;startArrow=classic;html=1;rounded=0;exitX=1;exitY=0.5;exitDx=0;exitDy=0;entryX=0;entryY=0.5;entryDx=0;entryDy=0;" parent="J1bqy3TiTtF0nXnbvTN2-1" source="J1bqy3TiTtF0nXnbvTN2-37" target="J1bqy3TiTtF0nXnbvTN2-38" edge="1">
          <mxGeometry width="50" height="50" relative="1" as="geometry">
            <mxPoint x="909.3942857142861" y="870.0000000000003" as="sourcePoint" />
            <mxPoint x="910.5142417582418" y="837.3354545454547" as="targetPoint" />
          </mxGeometry>
        </mxCell>
        <mxCell id="J1bqy3TiTtF0nXnbvTN2-42" style="edgeStyle=orthogonalEdgeStyle;rounded=0;orthogonalLoop=1;jettySize=auto;html=1;exitX=1;exitY=0.5;exitDx=0;exitDy=0;entryX=0;entryY=0.5;entryDx=0;entryDy=0;" parent="J1bqy3TiTtF0nXnbvTN2-1" source="J1bqy3TiTtF0nXnbvTN2-5" target="J1bqy3TiTtF0nXnbvTN2-37" edge="1">
          <mxGeometry relative="1" as="geometry" />
        </mxCell>
        <mxCell id="J1bqy3TiTtF0nXnbvTN2-43" style="edgeStyle=orthogonalEdgeStyle;rounded=0;orthogonalLoop=1;jettySize=auto;html=1;exitX=1;exitY=0.5;exitDx=0;exitDy=0;entryX=0.75;entryY=1;entryDx=0;entryDy=0;" parent="J1bqy3TiTtF0nXnbvTN2-1" source="J1bqy3TiTtF0nXnbvTN2-29" target="J1bqy3TiTtF0nXnbvTN2-37" edge="1">
          <mxGeometry relative="1" as="geometry" />
        </mxCell>
        <mxCell id="P7Ty_6j_-upv8-t5iq1F-7" style="edgeStyle=orthogonalEdgeStyle;rounded=0;orthogonalLoop=1;jettySize=auto;html=1;entryX=0.75;entryY=0;entryDx=0;entryDy=0;" edge="1" parent="J1bqy3TiTtF0nXnbvTN2-1" source="J1bqy3TiTtF0nXnbvTN2-7" target="J1bqy3TiTtF0nXnbvTN2-4">
          <mxGeometry relative="1" as="geometry">
            <mxPoint x="70.84285714285714" y="330" as="sourcePoint" />
          </mxGeometry>
        </mxCell>
        <mxCell id="P7Ty_6j_-upv8-t5iq1F-9" value="JSON API" style="edgeLabel;html=1;align=center;verticalAlign=middle;resizable=0;points=[];" vertex="1" connectable="0" parent="P7Ty_6j_-upv8-t5iq1F-7">
          <mxGeometry x="-0.1782" y="-1" relative="1" as="geometry">
            <mxPoint as="offset" />
          </mxGeometry>
        </mxCell>
        <mxCell id="J1bqy3TiTtF0nXnbvTN2-7" value="Mobile" style="sketch=0;outlineConnect=0;fontColor=#232F3E;gradientColor=none;fillColor=#232F3D;strokeColor=none;dashed=0;verticalLabelPosition=bottom;verticalAlign=top;align=center;html=1;fontSize=12;fontStyle=0;aspect=fixed;pointerEvents=1;shape=mxgraph.aws4.mobile_client;" parent="J1bqy3TiTtF0nXnbvTN2-1" vertex="1">
          <mxGeometry x="57.000000000000014" y="300.3518181818182" width="21.872773396036106" height="41.611617680263805" as="geometry" />
        </mxCell>
        <mxCell id="P7Ty_6j_-upv8-t5iq1F-28" value="" style="rounded=1;whiteSpace=wrap;html=1;" vertex="1" parent="J1bqy3TiTtF0nXnbvTN2-1">
          <mxGeometry x="814.2857142857143" y="110" width="1343.5714285714287" height="745" as="geometry" />
        </mxCell>
        <mxCell id="P7Ty_6j_-upv8-t5iq1F-31" value="" style="rounded=1;whiteSpace=wrap;html=1;movable=1;resizable=1;rotatable=1;deletable=1;editable=1;locked=0;connectable=1;fillColor=#e1d5e7;strokeColor=#9673a6;" vertex="1" parent="J1bqy3TiTtF0nXnbvTN2-1">
          <mxGeometry x="863.1428571428571" y="140" width="553.7142857142857" height="696.94" as="geometry" />
        </mxCell>
        <mxCell id="P7Ty_6j_-upv8-t5iq1F-73" value="" style="rounded=1;whiteSpace=wrap;html=1;fillColor=#f5f5f5;fontColor=#333333;strokeColor=#666666;" vertex="1" parent="J1bqy3TiTtF0nXnbvTN2-1">
          <mxGeometry x="1140" y="186.22" width="244.28571428571428" height="573.78" as="geometry" />
        </mxCell>
        <mxCell id="P7Ty_6j_-upv8-t5iq1F-200" value="" style="rounded=1;whiteSpace=wrap;html=1;fillColor=#ffe6cc;strokeColor=#d79b00;" vertex="1" parent="J1bqy3TiTtF0nXnbvTN2-1">
          <mxGeometry x="1783.29" y="143.59" width="269.53" height="666.41" as="geometry" />
        </mxCell>
        <mxCell id="P7Ty_6j_-upv8-t5iq1F-278" value="&lt;font style=&quot;font-size: 8px;&quot;&gt;Cash In &amp;amp; Out&lt;/font&gt;" style="rounded=1;whiteSpace=wrap;html=1;fillColor=#dbb3d2;" vertex="1" parent="J1bqy3TiTtF0nXnbvTN2-1">
          <mxGeometry x="1157.0185714285715" y="396.22" width="63.669" height="50" as="geometry" />
        </mxCell>
        <mxCell id="P7Ty_6j_-upv8-t5iq1F-300" value="&lt;font style=&quot;font-size: 8px;&quot;&gt;Beneficiary Confirmation&lt;/font&gt;" style="rounded=1;whiteSpace=wrap;html=1;fillColor=#DBB3D2;strokeColor=#9673a6;" vertex="1" parent="J1bqy3TiTtF0nXnbvTN2-1">
          <mxGeometry x="1303.5900000000001" y="511.72" width="63.669" height="50" as="geometry" />
        </mxCell>
        <mxCell id="P7Ty_6j_-upv8-t5iq1F-299" value="&lt;font style=&quot;font-size: 8px;&quot;&gt;&amp;nbsp;Funds Transfer&lt;/font&gt;" style="rounded=1;whiteSpace=wrap;html=1;fillColor=#dbb3d2;" vertex="1" parent="J1bqy3TiTtF0nXnbvTN2-1">
          <mxGeometry x="1303.5900000000001" y="396.2199999999999" width="63.669" height="50" as="geometry" />
        </mxCell>
        <mxCell id="P7Ty_6j_-upv8-t5iq1F-410" value="&lt;font style=&quot;font-size: 8px;&quot;&gt;Credit Card Application&amp;nbsp;&amp;nbsp;&lt;/font&gt;" style="rounded=1;whiteSpace=wrap;html=1;fillColor=#dbb3d2;" vertex="1" parent="J1bqy3TiTtF0nXnbvTN2-1">
          <mxGeometry x="1157.0185714285715" y="216.22" width="63.669" height="50" as="geometry" />
        </mxCell>
        <mxCell id="P7Ty_6j_-upv8-t5iq1F-409" value="&lt;font style=&quot;font-size: 8px;&quot;&gt;Account Types&lt;/font&gt;" style="rounded=1;whiteSpace=wrap;html=1;fillColor=#dbb3d2;" vertex="1" parent="J1bqy3TiTtF0nXnbvTN2-1">
          <mxGeometry x="1230.3042857142857" y="216.22" width="63.669" height="50" as="geometry" />
        </mxCell>
        <mxCell id="P7Ty_6j_-upv8-t5iq1F-408" value="&lt;font style=&quot;font-size: 8px;&quot;&gt;Open New Account&lt;/font&gt;" style="rounded=1;whiteSpace=wrap;html=1;fillColor=#dbb3d2;" vertex="1" parent="J1bqy3TiTtF0nXnbvTN2-1">
          <mxGeometry x="1303.5900000000001" y="216.22" width="63.669" height="50" as="geometry" />
        </mxCell>
        <mxCell id="P7Ty_6j_-upv8-t5iq1F-406" value="&lt;font style=&quot;font-size: 8px;&quot;&gt;Account Limits&lt;/font&gt;" style="rounded=1;whiteSpace=wrap;html=1;fillColor=#dbb3d2;" vertex="1" parent="J1bqy3TiTtF0nXnbvTN2-1">
          <mxGeometry x="1157.0185714285715" y="276.22" width="63.669" height="50" as="geometry" />
        </mxCell>
        <mxCell id="P7Ty_6j_-upv8-t5iq1F-405" value="&lt;font style=&quot;font-size: 8px;&quot;&gt;&amp;nbsp;Request Money&lt;/font&gt;" style="rounded=1;whiteSpace=wrap;html=1;fillColor=#dbb3d2;" vertex="1" parent="J1bqy3TiTtF0nXnbvTN2-1">
          <mxGeometry x="1303.5900000000001" y="276.22" width="63.669" height="50" as="geometry" />
        </mxCell>
        <mxCell id="P7Ty_6j_-upv8-t5iq1F-403" value="&lt;font style=&quot;font-size: 8px;&quot;&gt;Money Transfer&lt;/font&gt;" style="rounded=1;whiteSpace=wrap;html=1;fillColor=#dbb3d2;" vertex="1" parent="J1bqy3TiTtF0nXnbvTN2-1">
          <mxGeometry x="1232.918142857143" y="336.22" width="63.669" height="50" as="geometry" />
        </mxCell>
        <mxCell id="P7Ty_6j_-upv8-t5iq1F-402" value="&lt;font style=&quot;font-size: 8px;&quot;&gt;Account Limits&lt;/font&gt;" style="rounded=1;whiteSpace=wrap;html=1;fillColor=#dbb3d2;" vertex="1" parent="J1bqy3TiTtF0nXnbvTN2-1">
          <mxGeometry x="1157.7514285714287" y="336.22" width="63.669" height="50" as="geometry" />
        </mxCell>
        <mxCell id="P7Ty_6j_-upv8-t5iq1F-401" value="&lt;font style=&quot;font-size: 8px;&quot;&gt;Bulk Money Transfer&lt;/font&gt;" style="rounded=1;whiteSpace=wrap;html=1;fillColor=#dbb3d2;" vertex="1" parent="J1bqy3TiTtF0nXnbvTN2-1">
          <mxGeometry x="1230.3042857142857" y="396.22" width="63.669" height="50" as="geometry" />
        </mxCell>
        <mxCell id="P7Ty_6j_-upv8-t5iq1F-400" value="&lt;font style=&quot;font-size: 8px;&quot;&gt;&amp;nbsp;Account Type Selection&lt;/font&gt;" style="rounded=1;whiteSpace=wrap;html=1;fillColor=#dbb3d2;" vertex="1" parent="J1bqy3TiTtF0nXnbvTN2-1">
          <mxGeometry x="1230.3042857142857" y="277.66999999999996" width="63.669" height="50" as="geometry" />
        </mxCell>
        <mxCell id="P7Ty_6j_-upv8-t5iq1F-399" value="&lt;font style=&quot;font-size: 8px;&quot;&gt;Wallet Operations&lt;/font&gt;" style="rounded=1;whiteSpace=wrap;html=1;fillColor=#dbb3d2;" vertex="1" parent="J1bqy3TiTtF0nXnbvTN2-1">
          <mxGeometry x="1230.3042857142857" y="457.44000000000005" width="63.669" height="50" as="geometry" />
        </mxCell>
        <mxCell id="P7Ty_6j_-upv8-t5iq1F-398" value="&lt;font style=&quot;font-size: 8px;&quot;&gt;Cash In &amp;amp; Out&lt;/font&gt;" style="rounded=1;whiteSpace=wrap;html=1;fillColor=#dbb3d2;" vertex="1" parent="J1bqy3TiTtF0nXnbvTN2-1">
          <mxGeometry x="1302.857142857143" y="336.22" width="65.13471428571428" height="50" as="geometry" />
        </mxCell>
        <mxCell id="P7Ty_6j_-upv8-t5iq1F-397" value="&lt;font style=&quot;font-size: 8px;&quot;&gt;Reverse Payment&lt;/font&gt;" style="rounded=1;whiteSpace=wrap;html=1;fillColor=#dbb3d2;" vertex="1" parent="J1bqy3TiTtF0nXnbvTN2-1">
          <mxGeometry x="1157.0185714285715" y="457.44000000000005" width="63.669" height="50" as="geometry" />
        </mxCell>
        <mxCell id="P7Ty_6j_-upv8-t5iq1F-419" value="&lt;font style=&quot;font-size: 8px;&quot;&gt;Adding Beneficiaries&lt;/font&gt;" style="rounded=1;whiteSpace=wrap;html=1;fillColor=#DBB3D2;" vertex="1" parent="J1bqy3TiTtF0nXnbvTN2-1">
          <mxGeometry x="1155.5447142857145" y="511.72" width="138.42857142857142" height="50" as="geometry" />
        </mxCell>
        <mxCell id="P7Ty_6j_-upv8-t5iq1F-422" value="&lt;font style=&quot;font-size: 8px;&quot;&gt;Card Management&lt;/font&gt;" style="rounded=1;whiteSpace=wrap;html=1;fillColor=#dbb3d2;" vertex="1" parent="J1bqy3TiTtF0nXnbvTN2-1">
          <mxGeometry x="1303.5900000000001" y="458.6600000000001" width="63.669" height="47.56" as="geometry" />
        </mxCell>
        <mxCell id="P7Ty_6j_-upv8-t5iq1F-427" value="FinTech" style="text;html=1;strokeColor=none;fillColor=none;align=center;verticalAlign=middle;whiteSpace=wrap;rounded=0;" vertex="1" parent="J1bqy3TiTtF0nXnbvTN2-1">
          <mxGeometry x="1246.5900000000001" y="186.22" width="48.857142857142854" height="30" as="geometry" />
        </mxCell>
        <mxCell id="P7Ty_6j_-upv8-t5iq1F-428" value="" style="rounded=1;whiteSpace=wrap;html=1;fillColor=#f5f5f5;fontColor=#333333;strokeColor=#666666;" vertex="1" parent="J1bqy3TiTtF0nXnbvTN2-1">
          <mxGeometry x="889.2488571428571" y="210" width="118.79614285714284" height="150" as="geometry" />
        </mxCell>
        <mxCell id="P7Ty_6j_-upv8-t5iq1F-412" value="&lt;font style=&quot;font-size: 8px;&quot;&gt;User Registration and Authentication&lt;/font&gt;" style="rounded=1;whiteSpace=wrap;html=1;fillColor=#DBB3D2;" vertex="1" parent="J1bqy3TiTtF0nXnbvTN2-1">
          <mxGeometry x="902.1878571428572" y="240" width="89.57142857142857" height="50" as="geometry" />
        </mxCell>
        <mxCell id="P7Ty_6j_-upv8-t5iq1F-411" value="&lt;font style=&quot;font-size: 8px;&quot;&gt;Biometric Authentication Module&lt;/font&gt;" style="rounded=1;whiteSpace=wrap;html=1;fillColor=#DBB3D2;" vertex="1" parent="J1bqy3TiTtF0nXnbvTN2-1">
          <mxGeometry x="902.1878571428572" y="301.45" width="89.57142857142857" height="50" as="geometry" />
        </mxCell>
        <mxCell id="P7Ty_6j_-upv8-t5iq1F-429" value="Authentication" style="text;html=1;strokeColor=none;fillColor=none;align=center;verticalAlign=middle;whiteSpace=wrap;rounded=0;" vertex="1" parent="J1bqy3TiTtF0nXnbvTN2-1">
          <mxGeometry x="924.2142857142857" y="210" width="48.857142857142854" height="30" as="geometry" />
        </mxCell>
        <mxCell id="P7Ty_6j_-upv8-t5iq1F-430" value="" style="rounded=1;whiteSpace=wrap;html=1;fillColor=#f5f5f5;fontColor=#333333;strokeColor=#666666;" vertex="1" parent="J1bqy3TiTtF0nXnbvTN2-1">
          <mxGeometry x="1011.75" y="210" width="118.07142857142857" height="150" as="geometry" />
        </mxCell>
        <mxCell id="P7Ty_6j_-upv8-t5iq1F-432" value="booking platforms" style="text;html=1;strokeColor=none;fillColor=none;align=center;verticalAlign=middle;whiteSpace=wrap;rounded=0;" vertex="1" parent="J1bqy3TiTtF0nXnbvTN2-1">
          <mxGeometry x="1030.0714285714287" y="220" width="81.42857142857143" height="20" as="geometry" />
        </mxCell>
        <mxCell id="P7Ty_6j_-upv8-t5iq1F-302" value="&lt;font style=&quot;font-size: 8px;&quot;&gt;Bus Booking&lt;/font&gt;" style="rounded=1;whiteSpace=wrap;html=1;fillColor=#DBB3D2;" vertex="1" parent="J1bqy3TiTtF0nXnbvTN2-1">
          <mxGeometry x="1015.8214285714288" y="306.22" width="48.11614285714286" height="40" as="geometry" />
        </mxCell>
        <mxCell id="P7Ty_6j_-upv8-t5iq1F-301" value="&lt;font style=&quot;font-size: 8px;&quot;&gt;Hotel Booking&lt;/font&gt;" style="rounded=1;whiteSpace=wrap;html=1;fillColor=#DBB3D2;" vertex="1" parent="J1bqy3TiTtF0nXnbvTN2-1">
          <mxGeometry x="1015.8214285714286" y="251.05999999999997" width="48.11614285714286" height="39.68" as="geometry" />
        </mxCell>
        <mxCell id="P7Ty_6j_-upv8-t5iq1F-414" value="&lt;font style=&quot;font-size: 8px;&quot;&gt;Flight Booking&lt;/font&gt;" style="rounded=1;whiteSpace=wrap;html=1;fillColor=#DBB3D2;" vertex="1" parent="J1bqy3TiTtF0nXnbvTN2-1">
          <mxGeometry x="1076.892857142857" y="251.05999999999997" width="50.331" height="39.68" as="geometry" />
        </mxCell>
        <mxCell id="P7Ty_6j_-upv8-t5iq1F-421" value="&lt;font style=&quot;font-size: 8px;&quot;&gt;Train Booking&lt;/font&gt;" style="rounded=1;whiteSpace=wrap;html=1;fillColor=#DBB3D2;" vertex="1" parent="J1bqy3TiTtF0nXnbvTN2-1">
          <mxGeometry x="1076.892857142857" y="306.22" width="50.331" height="40" as="geometry" />
        </mxCell>
        <mxCell id="P7Ty_6j_-upv8-t5iq1F-434" value="" style="rounded=1;whiteSpace=wrap;html=1;fillColor=#f5f5f5;fontColor=#333333;strokeColor=#666666;" vertex="1" parent="J1bqy3TiTtF0nXnbvTN2-1">
          <mxGeometry x="889.2488571428571" y="378.11" width="242.65714285714284" height="161.89" as="geometry" />
        </mxCell>
        <mxCell id="P7Ty_6j_-upv8-t5iq1F-435" value="e-commerce&amp;nbsp;" style="text;html=1;strokeColor=none;fillColor=none;align=center;verticalAlign=middle;whiteSpace=wrap;rounded=0;" vertex="1" parent="J1bqy3TiTtF0nXnbvTN2-1">
          <mxGeometry x="977.9571428571428" y="378.11" width="65.14285714285714" height="30" as="geometry" />
        </mxCell>
        <mxCell id="P7Ty_6j_-upv8-t5iq1F-303" value="&lt;font style=&quot;font-size: 8px;&quot;&gt;&amp;nbsp;Food Orders&lt;/font&gt;" style="rounded=1;whiteSpace=wrap;html=1;fillColor=#DBB3D2;" vertex="1" parent="J1bqy3TiTtF0nXnbvTN2-1">
          <mxGeometry x="1051.9024285714286" y="407.44" width="63.669" height="50" as="geometry" />
        </mxCell>
        <mxCell id="P7Ty_6j_-upv8-t5iq1F-415" value="&lt;font style=&quot;font-size: 8px;&quot;&gt;Online Shopping&lt;/font&gt;" style="rounded=1;whiteSpace=wrap;html=1;fillColor=#DBB3D2;" vertex="1" parent="J1bqy3TiTtF0nXnbvTN2-1">
          <mxGeometry x="896.4552857142855" y="408.66" width="63.669" height="50" as="geometry" />
        </mxCell>
        <mxCell id="P7Ty_6j_-upv8-t5iq1F-423" value="&lt;font style=&quot;font-size: 8px;&quot;&gt;purchase Products&lt;/font&gt;" style="rounded=1;whiteSpace=wrap;html=1;fillColor=#DBB3D2;" vertex="1" parent="J1bqy3TiTtF0nXnbvTN2-1">
          <mxGeometry x="977.9571428571428" y="407.44" width="63.669" height="50" as="geometry" />
        </mxCell>
        <mxCell id="P7Ty_6j_-upv8-t5iq1F-416" value="&lt;font style=&quot;font-size: 8px;&quot;&gt;Buyer Account Creation &lt;/font&gt;" style="rounded=1;whiteSpace=wrap;html=1;fillColor=#DBB3D2;" vertex="1" parent="J1bqy3TiTtF0nXnbvTN2-1">
          <mxGeometry x="897.188142857143" y="470" width="63.669" height="50" as="geometry" />
        </mxCell>
        <mxCell id="P7Ty_6j_-upv8-t5iq1F-424" value="&lt;font style=&quot;font-size: 8px;&quot;&gt;Virtual Store Setup&lt;/font&gt;" style="rounded=1;whiteSpace=wrap;html=1;fillColor=#DBB3D2;" vertex="1" parent="J1bqy3TiTtF0nXnbvTN2-1">
          <mxGeometry x="977.9571428571428" y="469.13" width="136.9547142857143" height="50" as="geometry" />
        </mxCell>
        <mxCell id="P7Ty_6j_-upv8-t5iq1F-437" value="" style="rounded=1;whiteSpace=wrap;html=1;fillColor=#f5f5f5;fontColor=#333333;strokeColor=#666666;" vertex="1" parent="J1bqy3TiTtF0nXnbvTN2-1">
          <mxGeometry x="889.2" y="550" width="234.5142857142857" height="190" as="geometry" />
        </mxCell>
        <mxCell id="P7Ty_6j_-upv8-t5iq1F-438" value="Communication" style="text;html=1;strokeColor=none;fillColor=none;align=center;verticalAlign=middle;whiteSpace=wrap;rounded=0;" vertex="1" parent="J1bqy3TiTtF0nXnbvTN2-1">
          <mxGeometry x="985.3671428571428" y="561.72" width="48.857142857142854" height="30" as="geometry" />
        </mxCell>
        <mxCell id="P7Ty_6j_-upv8-t5iq1F-425" value="&lt;font style=&quot;font-size: 8px;&quot;&gt;Notification&lt;/font&gt;" style="rounded=1;whiteSpace=wrap;html=1;fillColor=#DBB3D2;" vertex="1" parent="J1bqy3TiTtF0nXnbvTN2-1">
          <mxGeometry x="897.1881428571428" y="660" width="63.669" height="50" as="geometry" />
        </mxCell>
        <mxCell id="P7Ty_6j_-upv8-t5iq1F-440" value="&lt;font style=&quot;font-size: 8px;&quot;&gt;ChatBot Integration&amp;nbsp;&lt;/font&gt;" style="rounded=1;whiteSpace=wrap;html=1;fillColor=#DBB3D2;" vertex="1" parent="J1bqy3TiTtF0nXnbvTN2-1">
          <mxGeometry x="1051.2428571428572" y="600" width="63.669" height="50" as="geometry" />
        </mxCell>
        <mxCell id="P7Ty_6j_-upv8-t5iq1F-417" value="&lt;font style=&quot;font-size: 8px;&quot;&gt;Channel&lt;/font&gt;" style="rounded=1;whiteSpace=wrap;html=1;fillColor=#DBB3D2;" vertex="1" parent="J1bqy3TiTtF0nXnbvTN2-1">
          <mxGeometry x="973.0714285714286" y="600" width="69.21428571428571" height="50" as="geometry" />
        </mxCell>
        <mxCell id="P7Ty_6j_-upv8-t5iq1F-304" value="&lt;font style=&quot;font-size: 8px;&quot;&gt;Chat&lt;/font&gt;" style="rounded=1;whiteSpace=wrap;html=1;fillColor=#DBB3D2;" vertex="1" parent="J1bqy3TiTtF0nXnbvTN2-1">
          <mxGeometry x="897.1881428571428" y="600" width="63.669" height="50" as="geometry" />
        </mxCell>
        <mxCell id="P7Ty_6j_-upv8-t5iq1F-407" value="&lt;font style=&quot;font-size: 8px;&quot;&gt;Friends Management&lt;/font&gt;" style="rounded=1;whiteSpace=wrap;html=1;fillColor=#DBB3D2;" vertex="1" parent="J1bqy3TiTtF0nXnbvTN2-1">
          <mxGeometry x="1051.2428571428572" y="660" width="64.32857142857142" height="50" as="geometry" />
        </mxCell>
        <mxCell id="P7Ty_6j_-upv8-t5iq1F-404" value="&lt;font style=&quot;font-size: 8px;&quot;&gt;Voice/Video Calls to Friends&lt;/font&gt;" style="rounded=1;whiteSpace=wrap;html=1;fillColor=#DBB3D2;" vertex="1" parent="J1bqy3TiTtF0nXnbvTN2-1">
          <mxGeometry x="973.1528571428571" y="660" width="69.13285714285715" height="50" as="geometry" />
        </mxCell>
        <mxCell id="P7Ty_6j_-upv8-t5iq1F-445" value="&lt;font style=&quot;font-size: 8px;&quot;&gt;Mobile Load &amp;amp; Packages&lt;/font&gt;" style="rounded=1;whiteSpace=wrap;html=1;fillColor=#dbb3d2;" vertex="1" parent="J1bqy3TiTtF0nXnbvTN2-1">
          <mxGeometry x="1157.7514285714287" y="570" width="63.669" height="50" as="geometry" />
        </mxCell>
        <mxCell id="P7Ty_6j_-upv8-t5iq1F-444" value="&lt;font style=&quot;font-size: 8px;&quot;&gt;Loan Management&lt;/font&gt;" style="rounded=1;whiteSpace=wrap;html=1;fillColor=#dbb3d2;" vertex="1" parent="J1bqy3TiTtF0nXnbvTN2-1">
          <mxGeometry x="1230.3042857142857" y="570" width="63.669" height="50" as="geometry" />
        </mxCell>
        <mxCell id="P7Ty_6j_-upv8-t5iq1F-443" value="&lt;font style=&quot;font-size: 8px;&quot;&gt;Loyalty Redeem Points&lt;/font&gt;" style="rounded=1;whiteSpace=wrap;html=1;fillColor=#dbb3d2;" vertex="1" parent="J1bqy3TiTtF0nXnbvTN2-1">
          <mxGeometry x="1302.857142857143" y="570" width="63.669" height="50" as="geometry" />
        </mxCell>
        <mxCell id="P7Ty_6j_-upv8-t5iq1F-446" value="&lt;font style=&quot;font-size: 8px;&quot;&gt;Mobile Load &amp;amp; Packages&lt;/font&gt;" style="rounded=1;whiteSpace=wrap;html=1;fillColor=#dbb3d2;" vertex="1" parent="J1bqy3TiTtF0nXnbvTN2-1">
          <mxGeometry x="1157.0185714285715" y="630" width="63.669" height="50" as="geometry" />
        </mxCell>
        <mxCell id="P7Ty_6j_-upv8-t5iq1F-448" value="&lt;font style=&quot;font-size: 8px;&quot;&gt;Insurance Management&amp;nbsp;&lt;/font&gt;" style="rounded=1;whiteSpace=wrap;html=1;fillColor=#dbb3d2;" vertex="1" parent="J1bqy3TiTtF0nXnbvTN2-1">
          <mxGeometry x="1232.918142857143" y="630" width="63.669" height="50" as="geometry" />
        </mxCell>
        <mxCell id="P7Ty_6j_-upv8-t5iq1F-447" value="&lt;font style=&quot;font-size: 8px;&quot;&gt;Loan Management&lt;/font&gt;" style="rounded=1;whiteSpace=wrap;html=1;fillColor=#dbb3d2;" vertex="1" parent="J1bqy3TiTtF0nXnbvTN2-1">
          <mxGeometry x="1302.857142857143" y="630" width="63.669" height="50" as="geometry" />
        </mxCell>
        <mxCell id="P7Ty_6j_-upv8-t5iq1F-449" value="&lt;font style=&quot;font-size: 8px;&quot;&gt;Quick Pay&lt;/font&gt;" style="rounded=1;whiteSpace=wrap;html=1;fillColor=#dbb3d2;" vertex="1" parent="J1bqy3TiTtF0nXnbvTN2-1">
          <mxGeometry x="1157.7514285714285" y="690" width="210.2485714285714" height="50" as="geometry" />
        </mxCell>
        <mxCell id="P7Ty_6j_-upv8-t5iq1F-452" value="&lt;font style=&quot;font-size: 8px;&quot;&gt;Location and Country Selection&lt;/font&gt;" style="rounded=1;whiteSpace=wrap;html=1;fillColor=#DBB3D2;" vertex="1" parent="J1bqy3TiTtF0nXnbvTN2-1">
          <mxGeometry x="909.4024285714286" y="768.68" width="63.669" height="50" as="geometry" />
        </mxCell>
        <mxCell id="P7Ty_6j_-upv8-t5iq1F-451" value="&lt;font style=&quot;font-size: 8px;&quot;&gt;Geolocalization&lt;/font&gt;" style="rounded=1;whiteSpace=wrap;html=1;fillColor=#DBB3D2;" vertex="1" parent="J1bqy3TiTtF0nXnbvTN2-1">
          <mxGeometry x="985.3671428571428" y="768.68" width="63.669" height="50" as="geometry" />
        </mxCell>
        <mxCell id="P7Ty_6j_-upv8-t5iq1F-454" value="&lt;font style=&quot;font-size: 8px;&quot;&gt;Setting&lt;/font&gt;" style="rounded=1;whiteSpace=wrap;html=1;fillColor=#DBB3D2;" vertex="1" parent="J1bqy3TiTtF0nXnbvTN2-1">
          <mxGeometry x="1066.1524285714286" y="768.68" width="63.669" height="50" as="geometry" />
        </mxCell>
        <mxCell id="P7Ty_6j_-upv8-t5iq1F-453" value="&lt;font style=&quot;font-size: 8px;&quot;&gt;Review &amp;amp; Feedback for Products&lt;/font&gt;" style="rounded=1;whiteSpace=wrap;html=1;fillColor=#DBB3D2;" vertex="1" parent="J1bqy3TiTtF0nXnbvTN2-1">
          <mxGeometry x="1220.6875714285713" y="768.68" width="161.3832857142857" height="50" as="geometry" />
        </mxCell>
        <mxCell id="P7Ty_6j_-upv8-t5iq1F-457" value="&lt;font style=&quot;font-size: 8px;&quot;&gt;Profile Setup&lt;/font&gt;" style="rounded=1;whiteSpace=wrap;html=1;fillColor=#DBB3D2;" vertex="1" parent="J1bqy3TiTtF0nXnbvTN2-1">
          <mxGeometry x="1140" y="768.68" width="63.669" height="50" as="geometry" />
        </mxCell>
        <mxCell id="P7Ty_6j_-upv8-t5iq1F-459" value="&lt;b&gt;USER&lt;/b&gt;" style="text;html=1;strokeColor=none;fillColor=none;align=center;verticalAlign=middle;whiteSpace=wrap;rounded=0;" vertex="1" parent="J1bqy3TiTtF0nXnbvTN2-1">
          <mxGeometry x="1123.7142857142858" y="150" width="48.857142857142854" height="30" as="geometry" />
        </mxCell>
        <mxCell id="P7Ty_6j_-upv8-t5iq1F-461" value="" style="rounded=1;whiteSpace=wrap;html=1;fillColor=#d5e8d4;strokeColor=#82b366;" vertex="1" parent="J1bqy3TiTtF0nXnbvTN2-1">
          <mxGeometry x="1449.4285714285713" y="150" width="293.14285714285717" height="600" as="geometry" />
        </mxCell>
        <mxCell id="P7Ty_6j_-upv8-t5iq1F-462" value="Merchant/Vendor" style="text;html=1;strokeColor=none;fillColor=none;align=center;verticalAlign=middle;whiteSpace=wrap;rounded=0;" vertex="1" parent="J1bqy3TiTtF0nXnbvTN2-1">
          <mxGeometry x="1578.2442857142858" y="156.22" width="48.857142857142854" height="30" as="geometry" />
        </mxCell>
        <mxCell id="P7Ty_6j_-upv8-t5iq1F-463" value="" style="rounded=1;whiteSpace=wrap;html=1;fillColor=#EEF7ED;fontColor=#333333;strokeColor=#666666;" vertex="1" parent="J1bqy3TiTtF0nXnbvTN2-1">
          <mxGeometry x="1473.857142857143" y="206.22" width="252.42857142857142" height="363.78" as="geometry" />
        </mxCell>
        <mxCell id="P7Ty_6j_-upv8-t5iq1F-464" value="&lt;font style=&quot;font-size: 8px;&quot;&gt;Selling Products&amp;nbsp;&lt;/font&gt;" style="rounded=1;whiteSpace=wrap;html=1;fillColor=#B9E0A5;" vertex="1" parent="J1bqy3TiTtF0nXnbvTN2-1">
          <mxGeometry x="1490.142857142857" y="240.00000000000003" width="63.669" height="50" as="geometry" />
        </mxCell>
        <mxCell id="P7Ty_6j_-upv8-t5iq1F-469" value="&lt;font style=&quot;font-size: 8px;&quot;&gt;Stock Management&lt;/font&gt;" style="rounded=1;whiteSpace=wrap;html=1;fillColor=#B9E0A5;" vertex="1" parent="J1bqy3TiTtF0nXnbvTN2-1">
          <mxGeometry x="1563.4285714285713" y="240" width="63.669" height="50" as="geometry" />
        </mxCell>
        <mxCell id="P7Ty_6j_-upv8-t5iq1F-468" value="&lt;font style=&quot;font-size: 8px;&quot;&gt;Categories Management&amp;nbsp;&lt;/font&gt;" style="rounded=1;whiteSpace=wrap;html=1;fillColor=#B9E0A5;" vertex="1" parent="J1bqy3TiTtF0nXnbvTN2-1">
          <mxGeometry x="1641.5267142857142" y="240.74000000000004" width="63.669" height="50" as="geometry" />
        </mxCell>
        <mxCell id="P7Ty_6j_-upv8-t5iq1F-467" value="&lt;font style=&quot;font-size: 8px;&quot;&gt;Product Management&amp;nbsp;&lt;/font&gt;" style="rounded=1;whiteSpace=wrap;html=1;fillColor=#B9E0A5;" vertex="1" parent="J1bqy3TiTtF0nXnbvTN2-1">
          <mxGeometry x="1646.3310000000001" y="480.83000000000004" width="63.669" height="50" as="geometry" />
        </mxCell>
        <mxCell id="P7Ty_6j_-upv8-t5iq1F-466" value="&lt;font style=&quot;font-size: 8px;&quot;&gt;Subcategories Management&amp;nbsp;&lt;/font&gt;" style="rounded=1;whiteSpace=wrap;html=1;fillColor=#B9E0A5;" vertex="1" parent="J1bqy3TiTtF0nXnbvTN2-1">
          <mxGeometry x="1563.4285714285713" y="480.83" width="63.669" height="50" as="geometry" />
        </mxCell>
        <mxCell id="P7Ty_6j_-upv8-t5iq1F-470" value="e-commerce&lt;br&gt;" style="text;html=1;strokeColor=none;fillColor=none;align=center;verticalAlign=middle;whiteSpace=wrap;rounded=0;" vertex="1" parent="J1bqy3TiTtF0nXnbvTN2-1">
          <mxGeometry x="1636.7142857142858" y="210" width="73.28571428571429" height="30" as="geometry" />
        </mxCell>
        <mxCell id="P7Ty_6j_-upv8-t5iq1F-474" value="&lt;font style=&quot;font-size: 8px;&quot;&gt;Rating &amp;amp; Review Management&lt;/font&gt;" style="rounded=1;whiteSpace=wrap;html=1;fillColor=#B9E0A5;" vertex="1" parent="J1bqy3TiTtF0nXnbvTN2-1">
          <mxGeometry x="1563.4285714285713" y="328.11" width="63.669" height="50" as="geometry" />
        </mxCell>
        <mxCell id="P7Ty_6j_-upv8-t5iq1F-473" value="&lt;font style=&quot;font-size: 8px;&quot;&gt;Selling Products&amp;nbsp;&lt;/font&gt;" style="rounded=1;whiteSpace=wrap;html=1;fillColor=#B9E0A5;" vertex="1" parent="J1bqy3TiTtF0nXnbvTN2-1">
          <mxGeometry x="1490.142857142857" y="328.11" width="63.669" height="50" as="geometry" />
        </mxCell>
        <mxCell id="P7Ty_6j_-upv8-t5iq1F-472" value="&lt;font style=&quot;font-size: 8px;&quot;&gt;Order Stats and Analytics&lt;/font&gt;" style="rounded=1;whiteSpace=wrap;html=1;fillColor=#B9E0A5;" vertex="1" parent="J1bqy3TiTtF0nXnbvTN2-1">
          <mxGeometry x="1641.5267142857142" y="328.11" width="63.669" height="50" as="geometry" />
        </mxCell>
        <mxCell id="P7Ty_6j_-upv8-t5iq1F-471" value="&lt;font style=&quot;font-size: 8px;&quot;&gt;Order Management&lt;/font&gt;" style="rounded=1;whiteSpace=wrap;html=1;fillColor=#B9E0A5;" vertex="1" parent="J1bqy3TiTtF0nXnbvTN2-1">
          <mxGeometry x="1641.5267142857142" y="408.66" width="63.669" height="50" as="geometry" />
        </mxCell>
        <mxCell id="P7Ty_6j_-upv8-t5iq1F-475" value="&lt;font style=&quot;font-size: 8px;&quot;&gt;Order Management&lt;/font&gt;" style="rounded=1;whiteSpace=wrap;html=1;fillColor=#B9E0A5;" vertex="1" parent="J1bqy3TiTtF0nXnbvTN2-1">
          <mxGeometry x="1490.142857142857" y="480.83" width="63.669" height="50" as="geometry" />
        </mxCell>
        <mxCell id="P7Ty_6j_-upv8-t5iq1F-478" value="&lt;font style=&quot;font-size: 8px;&quot;&gt;Invoice&lt;/font&gt;" style="rounded=1;whiteSpace=wrap;html=1;fillColor=#B9E0A5;" vertex="1" parent="J1bqy3TiTtF0nXnbvTN2-1">
          <mxGeometry x="1563.4285714285713" y="407.44" width="63.669" height="50" as="geometry" />
        </mxCell>
        <mxCell id="P7Ty_6j_-upv8-t5iq1F-477" value="&lt;font style=&quot;font-size: 8px;&quot;&gt;Return Order&lt;/font&gt;" style="rounded=1;whiteSpace=wrap;html=1;fillColor=#B9E0A5;" vertex="1" parent="J1bqy3TiTtF0nXnbvTN2-1">
          <mxGeometry x="1490.142857142857" y="407.44" width="63.669" height="50" as="geometry" />
        </mxCell>
        <mxCell id="P7Ty_6j_-upv8-t5iq1F-480" value="&lt;font style=&quot;font-size: 8px;&quot;&gt;Merchant Profile Management&lt;/font&gt;" style="rounded=1;whiteSpace=wrap;html=1;fillColor=#B9E0A5;" vertex="1" parent="J1bqy3TiTtF0nXnbvTN2-1">
          <mxGeometry x="1563.4285714285713" y="591.72" width="151.7665714285714" height="50" as="geometry" />
        </mxCell>
        <mxCell id="P7Ty_6j_-upv8-t5iq1F-481" value="&lt;font style=&quot;font-size: 8px;&quot;&gt;Payment Gateway&lt;/font&gt;" style="rounded=1;whiteSpace=wrap;html=1;fillColor=#B9E0A5;" vertex="1" parent="J1bqy3TiTtF0nXnbvTN2-1">
          <mxGeometry x="1473.857142857143" y="591.72" width="79.95471428571429" height="50" as="geometry" />
        </mxCell>
        <mxCell id="P7Ty_6j_-upv8-t5iq1F-482" value="&lt;font style=&quot;font-size: 8px;&quot;&gt;Train Bot&amp;nbsp;&lt;/font&gt;" style="rounded=1;whiteSpace=wrap;html=1;fillColor=#B9E0A5;" vertex="1" parent="J1bqy3TiTtF0nXnbvTN2-1">
          <mxGeometry x="1473.857142857143" y="652.59" width="122.14285714285714" height="50" as="geometry" />
        </mxCell>
        <mxCell id="P7Ty_6j_-upv8-t5iq1F-719" value="&lt;font style=&quot;font-size: 8px;&quot;&gt;Live Chat&amp;nbsp;&amp;nbsp;&lt;/font&gt;" style="rounded=1;whiteSpace=wrap;html=1;fillColor=#B9E0A5;" vertex="1" parent="J1bqy3TiTtF0nXnbvTN2-1">
          <mxGeometry x="1604.142857142857" y="652.59" width="114" height="50" as="geometry" />
        </mxCell>
      </root>
    </mxGraphModel>
  </diagram>
</mxfile>
